<?xml version="1.0" encoding="UTF-8"?> <svg xmlns="http://www.w3.org/2000/svg" width="34" height="34" viewBox="0 0 34 34" fill="none"><g clip-path="url(#clip0_2418_65556)"><path fill-rule="evenodd" clip-rule="evenodd" d="M0.581172 2.66035C0 3.75799 0 5.20533 0 8.1V25.9C0 28.7947 0 30.242 0.581172 31.3396C1.05017 32.2254 1.77456 32.9498 2.66035 33.4188C3.75799 34 5.20533 34 8.1 34H25.9C28.7947 34 30.242 34 31.3396 33.4188C32.2254 32.9498 32.9498 32.2254 33.4188 31.3396C34 30.242 34 28.7947 34 25.9V8.1C34 5.20533 34 3.75799 33.4188 2.66035C32.9498 1.77456 32.2254 1.05017 31.3396 0.581172C30.242 0 28.7947 0 25.9 0H8.1C5.20533 0 3.75799 0 2.66035 0.581172C1.77456 1.05017 1.05017 1.77456 0.581172 2.66035ZM6.5 5C5.67157 5 5 5.67157 5 6.5V27.5C5 28.3284 5.67157 29 6.5 29H13.5C14.3284 29 15 28.3284 15 27.5V6.5C15 5.67157 14.3284 5 13.5 5H6.5ZM19 6.5C19 5.67157 19.6716 5 20.5 5H27.5C28.3284 5 29 5.67157 29 6.5V11.5C29 12.3284 28.3284 13 27.5 13H20.5C19.6716 13 19 12.3284 19 11.5V6.5ZM19 18.5C19 17.6716 19.6716 17 20.5 17H27.5C28.3284 17 29 17.6716 29 18.5V27.5C29 28.3284 28.3284 29 27.5 29H20.5C19.6716 29 19 28.3284 19 27.5V18.5Z" fill="#0A0B0C"></path></g><defs><clipPath id="clip0_2418_65556"><rect width="34" height="34" fill="white"></rect></clipPath></defs></svg> 