<svg width="1360" height="274" viewBox="0 0 1360 274" fill="none" xmlns="http://www.w3.org/2000/svg">
<path d="M407.06 149.599H338.621C339.462 156.082 341.863 161.064 345.825 164.545C349.788 167.906 355.011 169.587 361.495 169.587C365.577 169.587 369.239 168.747 372.481 167.066C375.843 165.265 378.243 162.684 379.686 159.323H405.439C402.68 168.927 397.215 176.73 389.051 182.732C381.005 188.615 371.58 191.556 360.774 191.556C346.846 191.556 335.439 186.934 326.554 177.69C317.669 168.447 313.227 156.562 313.227 142.037C313.227 127.991 317.669 116.286 326.554 106.922C335.439 97.5588 346.786 92.877 360.594 92.877C374.402 92.877 385.629 97.5588 394.275 106.922C403.039 116.166 407.423 127.871 407.423 142.037L407.06 149.599ZM360.414 113.405C354.651 113.405 349.908 115.026 346.186 118.267C342.463 121.388 340.062 125.71 338.981 131.232H381.845C380.886 125.83 378.546 121.508 374.822 118.267C371.1 115.026 366.297 113.405 360.414 113.405Z" fill="white"/>
<path d="M450.275 189.395H424.701V54.3418H450.275V189.395Z" fill="white"/>
<path d="M497.724 78.4704C494.843 81.3516 491.122 82.7921 486.557 82.7921C481.995 82.7921 478.273 81.3516 475.393 78.4704C472.509 75.5893 471.068 71.9279 471.068 67.4861C471.068 63.0443 472.509 59.3829 475.393 56.5018C478.273 53.5006 481.995 52 486.557 52C491.122 52 494.843 53.5006 497.724 56.5018C500.608 59.3829 502.048 63.0443 502.048 67.4861C502.048 71.9279 500.608 75.5893 497.724 78.4704ZM473.771 189.394V95.037H499.345V189.394H473.771Z" fill="white"/>
<path d="M567.148 166.705V188.853C564.267 189.573 560.246 189.934 555.081 189.934C535.75 189.934 526.086 180.33 526.086 161.122V115.204H513.297V95.0362H526.086V71.627H551.66V95.0362H567.329V115.204H551.66V158.421C551.66 164.544 554.841 167.605 561.205 167.605L567.148 166.705Z" fill="white"/>
<path d="M668.951 149.599H600.511C601.352 156.082 603.755 161.064 607.716 164.545C611.678 167.906 616.899 169.587 623.386 169.587C627.467 169.587 631.129 168.747 634.372 167.066C637.734 165.265 640.133 162.684 641.574 159.323H667.329C664.567 168.927 659.106 176.73 650.941 182.732C642.896 188.615 633.469 191.556 622.664 191.556C608.735 191.556 597.331 186.934 588.444 177.69C579.558 168.447 575.115 156.562 575.115 142.037C575.115 127.991 579.558 116.286 588.444 106.922C597.331 97.5588 608.676 92.877 622.483 92.877C636.293 92.877 647.52 97.5588 656.162 106.922C664.93 116.166 669.31 127.871 669.31 142.037L668.951 149.599ZM622.305 113.405C616.54 113.405 611.797 115.026 608.076 118.267C604.355 121.388 601.952 125.71 600.871 131.232H643.736C642.777 125.83 640.433 121.508 636.712 118.267C632.991 115.026 628.188 113.405 622.305 113.405Z" fill="white"/>
<path d="M798.754 105.122V54.3418H824.328V189.395H800.735V177.871C794.492 186.994 784.525 191.556 770.836 191.556C757.51 191.556 746.943 186.874 739.138 177.51C731.336 168.147 727.434 156.382 727.434 142.217C727.434 128.051 731.336 116.286 739.138 106.923C746.943 97.5589 757.51 92.877 770.836 92.877C777.082 92.877 782.603 94.0776 787.409 96.4783C792.33 98.7594 796.114 101.641 798.754 105.122ZM792.992 161.484C797.313 156.442 799.476 150.019 799.476 142.217C799.476 134.414 797.313 127.991 792.992 122.949C788.79 117.907 783.206 115.386 776.242 115.386C769.277 115.386 763.634 117.907 759.31 122.949C755.107 127.991 753.008 134.414 753.008 142.217C753.008 150.019 755.107 156.442 759.31 161.484C763.634 166.526 769.277 169.047 776.242 169.047C783.206 169.047 788.79 166.526 792.992 161.484Z" fill="white"/>
<path d="M935.592 149.599H867.152C867.992 156.082 870.392 161.064 874.354 164.545C878.316 167.906 883.54 169.587 890.023 169.587C894.107 169.587 897.769 168.747 901.009 167.066C904.371 165.265 906.774 162.684 908.214 159.323H933.97C931.208 168.927 925.746 176.73 917.582 182.732C909.536 188.615 900.109 191.556 889.305 191.556C875.376 191.556 863.968 186.934 855.085 177.69C846.199 168.447 841.756 156.562 841.756 142.037C841.756 127.991 846.199 116.286 855.085 106.922C863.968 97.5588 875.316 92.877 889.124 92.877C902.931 92.877 914.157 97.5588 922.803 106.922C931.567 116.166 935.951 127.871 935.951 142.037L935.592 149.599ZM888.942 113.405C883.181 113.405 878.438 115.026 874.716 118.267C870.992 121.388 868.592 125.71 867.511 131.232H910.377C909.414 125.83 907.074 121.508 903.353 118.267C899.628 115.026 894.826 113.405 888.942 113.405Z" fill="white"/>
<path d="M986.73 191.556C961.034 191.556 947.405 180.632 945.846 158.783H971.779C972.02 162.264 973.401 165.206 975.922 167.607C978.563 169.887 982.406 171.028 987.449 171.028C992.251 171.028 995.913 170.248 998.435 168.687C1000.96 167.126 1002.22 165.026 1002.22 162.384C1002.22 159.503 1000.42 157.403 996.816 156.082C993.214 154.641 988.83 153.501 983.668 152.661C978.625 151.82 973.52 150.68 968.358 149.239C963.196 147.799 958.813 144.978 955.21 140.776C951.607 136.574 949.808 130.992 949.808 124.029C949.808 115.266 953.288 107.883 960.253 101.88C967.217 95.8781 976.344 92.877 987.63 92.877C1000.48 92.877 1010.02 96.1184 1016.27 102.601C1022.51 109.083 1025.87 116.466 1026.35 124.75H1001.68C1001.44 121.508 1000.06 118.807 997.535 116.646C995.135 114.486 991.773 113.405 987.449 113.405C983.368 113.405 980.184 114.305 977.903 116.106C975.622 117.787 974.482 119.948 974.482 122.589C974.482 125.47 976.282 127.571 979.884 128.891C983.487 130.212 987.808 131.292 992.851 132.132C998.016 132.853 1003.12 133.933 1008.16 135.374C1013.32 136.814 1017.71 139.695 1021.31 144.017C1024.91 148.339 1026.71 154.101 1026.71 161.304C1026.71 170.068 1023.11 177.33 1015.91 183.093C1008.82 188.735 999.097 191.556 986.73 191.556Z" fill="white"/>
<path d="M1067.41 78.4704C1064.53 81.3516 1060.81 82.7921 1056.25 82.7921C1051.68 82.7921 1047.96 81.3516 1045.08 78.4704C1042.2 75.5893 1040.76 71.9279 1040.76 67.4861C1040.76 63.0443 1042.2 59.3829 1045.08 56.5018C1047.96 53.5006 1051.68 52 1056.25 52C1060.81 52 1064.53 53.5006 1067.41 56.5018C1070.29 59.3829 1071.73 63.0443 1071.73 67.4861C1071.73 71.9279 1070.29 75.5893 1067.41 78.4704ZM1043.46 189.394V95.037H1069.03V189.394H1043.46Z" fill="white"/>
<path d="M1159.17 106.562V95.0378H1182.76V185.794C1182.76 198.399 1178.68 208.723 1170.52 216.766C1162.35 224.809 1151.24 228.831 1137.2 228.831C1123.87 228.831 1113.48 225.289 1106.04 218.207C1098.71 211.124 1094.63 203.2 1093.79 194.437H1119.37C1121.05 202.72 1127.11 206.862 1137.56 206.862C1143.92 206.862 1148.78 205.241 1152.14 202C1155.51 198.759 1157.19 194.257 1157.19 188.495V175.35C1151.07 183.513 1141.88 187.594 1129.63 187.594C1116.78 187.594 1106.4 183.093 1098.47 174.089C1090.55 164.966 1086.59 153.681 1086.59 140.236C1086.59 126.79 1090.55 115.566 1098.47 106.562C1106.4 97.4388 1116.78 92.877 1129.63 92.877C1143.08 92.877 1152.92 97.4388 1159.17 106.562ZM1151.61 158.243C1155.81 153.681 1157.91 147.679 1157.91 140.236C1157.91 132.793 1155.81 126.79 1151.61 122.229C1147.4 117.667 1141.88 115.386 1135.03 115.386C1128.19 115.386 1122.67 117.667 1118.46 122.229C1114.26 126.79 1112.16 132.793 1112.16 140.236C1112.16 147.679 1114.26 153.681 1118.46 158.243C1122.67 162.804 1128.19 165.086 1135.03 165.086C1141.88 165.086 1147.4 162.804 1151.61 158.243Z" fill="white"/>
<path d="M1228.87 95.0378V106.562C1233.79 97.4388 1243.16 92.877 1256.96 92.877C1268.13 92.877 1276.71 96.2983 1282.72 103.141C1288.72 109.864 1291.72 118.987 1291.72 130.512V189.395H1266.15V133.393C1266.15 121.028 1260.81 114.846 1250.12 114.846C1244 114.846 1239.25 116.706 1235.89 120.428C1232.53 124.029 1230.85 129.011 1230.85 135.374V189.395H1205.27V95.0378H1228.87Z" fill="white"/>
<path d="M4 137.088C4 89.0388 4 65.0137 15.0474 47.4871C20.7595 38.4246 28.4292 30.7564 37.4933 25.0453C55.0232 14 79.0528 14 127.111 14C175.169 14 199.199 14 216.729 25.0453C225.793 30.7564 233.463 38.4246 239.175 47.4871C250.222 65.0137 250.222 89.0388 250.222 137.088C250.222 185.138 250.222 209.163 239.175 226.689C233.463 235.752 225.793 243.42 216.729 249.131C199.199 260.176 175.169 260.176 127.111 260.176C79.0528 260.176 55.0232 260.176 37.4933 249.131C28.4292 243.42 20.7595 235.752 15.0474 226.689C4 209.163 4 185.138 4 137.088Z" fill="white"/>
<path d="M37.1123 137.089C86.8169 137.089 127.111 96.8028 127.111 47.1074V137.089H37.1123Z" fill="#1E1E1E"/>
<path d="M37.1123 137.088C86.8169 137.088 127.111 177.374 127.111 227.07V137.088H37.1123Z" fill="#1E1E1E"/>
<path d="M217.11 137.089C167.405 137.089 127.111 96.8028 127.111 47.1074V137.089H217.11Z" fill="#1E1E1E"/>
<path d="M217.11 137.088C167.405 137.088 127.111 177.374 127.111 227.07V137.088H217.11Z" fill="#1E1E1E"/>
</svg>
