<?xml version="1.0" encoding="UTF-8"?> <svg xmlns="http://www.w3.org/2000/svg" width="34" height="35" viewBox="0 0 34 35" fill="none"><g clip-path="url(#clip0_1172_59111)"><path fill-rule="evenodd" clip-rule="evenodd" d="M27.7737 18.3917H24.1194C23.8861 18.3917 23.6687 18.2807 23.5366 18.0948C23.4051 17.9093 23.3756 17.673 23.4595 17.4625L24.9481 13.7197L24.9611 13.6871C25.3375 12.6885 25.5274 11.6427 25.5274 10.5754C25.5274 5.57115 21.3177 1.5 16.143 1.5C10.9688 1.5 6.7583 5.57115 6.7583 10.5754C6.7583 11.1997 6.82451 11.8228 6.95411 12.4279C7.03884 12.8226 7.15469 13.2211 7.29766 13.6115C7.30074 13.6192 7.30319 13.6266 7.30511 13.6342L7.40771 13.8975L7.41954 13.929L8.79436 17.4674C8.87613 17.6775 8.8463 17.9128 8.71361 18.0974C8.58209 18.2812 8.3648 18.3916 8.13234 18.3916H4.51277C3.1268 18.3916 2 19.4815 2 20.8219C2 22.1614 3.1268 23.2518 4.51277 23.2518H8.3567C8.64316 23.2518 8.90133 23.4189 9.01036 23.6753C9.11977 23.9313 9.05793 24.2261 8.85401 24.4216L6.0419 27.1138C5.57007 27.5705 5.3081 28.1808 5.3081 28.8299C5.3081 29.479 5.57007 30.0891 6.04473 30.5482C6.51864 31.0074 7.15031 31.2596 7.82107 31.2596C8.49234 31.2596 9.12221 31.008 9.59497 30.5509L12.426 27.8401C12.561 27.7104 12.7409 27.6424 12.923 27.6424C13.0145 27.6424 13.107 27.6592 13.1954 27.6947C13.4583 27.801 13.6295 28.0497 13.6295 28.3255V32.0697C13.6295 33.4096 14.7572 34.5 16.1423 34.5C17.528 34.5 18.6557 33.4096 18.6557 32.0697V28.3288C18.6557 28.0527 18.8267 27.8037 19.0907 27.6974C19.3538 27.5908 19.6577 27.6491 19.8601 27.8435L22.6761 30.5464C23.1527 31.0074 23.784 31.2596 24.4547 31.2596C25.1258 31.2596 25.7569 31.0074 26.2315 30.5482C26.7063 30.0888 26.9673 29.4792 26.9673 28.8299C26.9673 28.1808 26.705 27.5699 26.2297 27.1097L23.4275 24.4205C23.2242 24.2251 23.1631 23.9311 23.272 23.6749C23.3814 23.419 23.6388 23.2518 23.9254 23.2518H27.7733C29.1584 23.2518 30.2857 22.1614 30.2857 20.8219C30.2858 19.4817 29.1588 18.3917 27.7737 18.3917ZM13.4475 8.67747C12.2991 8.67747 11.3648 9.58081 11.3648 10.6915C11.3648 11.802 12.2991 12.7056 13.4475 12.7056C14.5956 12.7056 15.53 11.802 15.53 10.6915C15.53 9.58081 14.5956 8.67747 13.4475 8.67747ZM20.7293 12.1161C19.9178 12.901 18.5964 12.9008 17.7847 12.1161C16.9723 11.33 16.9723 10.0524 17.7847 9.26671C18.596 8.48243 19.9173 8.48204 20.7293 9.26723C21.0503 9.57798 21.5713 9.57798 21.8926 9.26723C22.2136 8.95673 22.2136 8.45324 21.8926 8.14274C20.4392 6.73765 18.0746 6.73647 16.6215 8.14249C16.5243 8.2366 16.4346 8.33483 16.3505 8.43679C15.6666 7.6147 14.6199 7.0867 13.4471 7.0867C11.392 7.0867 9.71994 8.70396 9.71994 10.6914C9.71994 12.6789 11.392 14.296 13.4471 14.296C14.6199 14.296 15.6666 13.768 16.3505 12.946C16.4346 13.048 16.5241 13.146 16.6215 13.2403C17.348 13.9431 18.3025 14.2946 19.2571 14.2946C20.2116 14.2946 21.1656 13.9431 21.8926 13.2403C22.2136 12.9298 22.2136 12.4264 21.8926 12.1161C21.5713 11.8051 21.0503 11.8051 20.7293 12.1161Z" fill="#0A0B0C"></path></g><defs><clipPath id="clip0_1172_59111"><rect width="34" height="34" fill="white" transform="translate(0 0.5)"></rect></clipPath></defs></svg> 