<?xml version="1.0" encoding="UTF-8"?> <svg xmlns="http://www.w3.org/2000/svg" width="34" height="35" viewBox="0 0 34 35" fill="none"><g clip-path="url(#clip0_1172_59234)"><path fill-rule="evenodd" clip-rule="evenodd" d="M0.581172 3.40742C0 4.50506 0 5.9524 0 8.84707V26.6471C0 29.5417 0 30.9891 0.581172 32.0867C1.05017 32.9725 1.77456 33.6969 2.66035 34.1659C3.75799 34.7471 5.20533 34.7471 8.1 34.7471H25.9C28.7947 34.7471 30.242 34.7471 31.3396 34.1659C32.2254 33.6969 32.9498 32.9725 33.4188 32.0867C34 30.9891 34 29.5417 34 26.6471V8.84707C34 5.9524 34 4.50506 33.4188 3.40742C32.9498 2.52163 32.2254 1.79724 31.3396 1.32824C30.242 0.74707 28.7947 0.74707 25.9 0.74707H8.1C5.20533 0.74707 3.75799 0.74707 2.66035 1.32824C1.77456 1.79724 1.05017 2.52163 0.581172 3.40742ZM7.7834 10.4646C7.70312 10.6162 7.70312 10.8162 7.70312 11.216V12.8034C7.70312 13.2032 7.70312 13.4031 7.7834 13.5547C7.84818 13.6771 7.94824 13.7771 8.07059 13.8419C8.2222 13.9222 8.42211 13.9222 8.82194 13.9222H11.7906C12.1904 13.9222 12.3903 13.9222 12.5419 13.8419C12.6643 13.7771 12.7643 13.6771 12.8291 13.5547C12.9094 13.4031 12.9094 13.2032 12.9094 12.8034V11.216C12.9094 10.8162 12.9094 10.6162 12.8291 10.4646C12.7643 10.3423 12.6643 10.2422 12.5419 10.1774C12.3903 10.0972 12.1904 10.0972 11.7906 10.0972H8.82194C8.42211 10.0972 8.2222 10.0972 8.07059 10.1774C7.94824 10.2422 7.84818 10.3423 7.7834 10.4646ZM14.4769 10.4647C14.3967 10.6163 14.3967 10.8162 14.3967 11.216V12.8034C14.3967 13.2032 14.3967 13.4031 14.4769 13.5548C14.5417 13.6771 14.6418 13.7772 14.7641 13.8419C14.9157 13.9222 15.1157 13.9222 15.5155 13.9222H18.4841C18.8839 13.9222 19.0838 13.9222 19.2355 13.8419C19.3578 13.7772 19.4579 13.6771 19.5226 13.5548C19.6029 13.4031 19.6029 13.2032 19.6029 12.8034V11.216C19.6029 10.8162 19.6029 10.6163 19.5226 10.4647C19.4579 10.3423 19.3578 10.2423 19.2355 10.1775C19.0838 10.0972 18.8839 10.0972 18.4841 10.0972H15.5155C15.1157 10.0972 14.9157 10.0972 14.7641 10.1775C14.6418 10.2423 14.5417 10.3423 14.4769 10.4647ZM21.0902 11.216C21.0902 10.8162 21.0902 10.6163 21.1705 10.4647C21.2353 10.3423 21.3353 10.2423 21.4577 10.1775C21.6093 10.0972 21.8092 10.0972 22.209 10.0972H25.1777C25.5775 10.0972 25.7774 10.0972 25.929 10.1775C26.0514 10.2423 26.1514 10.3423 26.2162 10.4647C26.2965 10.6163 26.2965 10.8162 26.2965 11.216V12.8034C26.2965 13.2032 26.2965 13.4031 26.2162 13.5548C26.1514 13.6771 26.0514 13.7772 25.929 13.8419C25.7774 13.9222 25.5775 13.9222 25.1777 13.9222H22.209C21.8092 13.9222 21.6093 13.9222 21.4577 13.8419C21.3353 13.7772 21.2353 13.6771 21.1705 13.5548C21.0902 13.4031 21.0902 13.2032 21.0902 12.8034V11.216ZM7.7834 16.2019C7.70312 16.3535 7.70312 16.5534 7.70312 16.9532V18.5406C7.70312 18.9404 7.70312 19.1404 7.7834 19.292C7.84818 19.4143 7.94824 19.5144 8.07059 19.5792C8.2222 19.6594 8.42211 19.6594 8.82194 19.6594H11.7906C12.1904 19.6594 12.3903 19.6594 12.5419 19.5792C12.6643 19.5144 12.7643 19.4143 12.8291 19.292C12.9094 19.1404 12.9094 18.9404 12.9094 18.5406V16.9532C12.9094 16.5534 12.9094 16.3535 12.8291 16.2019C12.7643 16.0795 12.6643 15.9795 12.5419 15.9147C12.3903 15.8344 12.1904 15.8344 11.7906 15.8344H8.82194C8.42211 15.8344 8.2222 15.8344 8.07059 15.9147C7.94824 15.9795 7.84818 16.0795 7.7834 16.2019ZM14.3967 16.9532C14.3967 16.5534 14.3967 16.3535 14.4769 16.2019C14.5417 16.0795 14.6418 15.9795 14.7641 15.9147C14.9157 15.8344 15.1157 15.8344 15.5155 15.8344H18.4841C18.8839 15.8344 19.0838 15.8344 19.2355 15.9147C19.3578 15.9795 19.4579 16.0795 19.5226 16.2019C19.6029 16.3535 19.6029 16.5534 19.6029 16.9532V18.5406C19.6029 18.9404 19.6029 19.1404 19.5226 19.292C19.4579 19.4143 19.3578 19.5144 19.2355 19.5792C19.0838 19.6594 18.8839 19.6594 18.4841 19.6594H15.5155C15.1157 19.6594 14.9157 19.6594 14.7641 19.5792C14.6418 19.5144 14.5417 19.4143 14.4769 19.292C14.3967 19.1404 14.3967 18.9404 14.3967 18.5406V16.9532ZM21.1705 16.2019C21.0902 16.3535 21.0902 16.5534 21.0902 16.9532V18.5406C21.0902 18.9404 21.0902 19.1404 21.1705 19.292C21.2353 19.4143 21.3353 19.5144 21.4577 19.5792C21.6093 19.6594 21.8092 19.6594 22.209 19.6594H25.1777C25.5775 19.6594 25.7774 19.6594 25.929 19.5792C26.0514 19.5144 26.1514 19.4143 26.2162 19.292C26.2965 19.1404 26.2965 18.9404 26.2965 18.5406V16.9532C26.2965 16.5534 26.2965 16.3535 26.2162 16.2019C26.1514 16.0795 26.0514 15.9795 25.929 15.9147C25.7774 15.8344 25.5775 15.8344 25.1777 15.8344H22.209C21.8092 15.8344 21.6093 15.8344 21.4577 15.9147C21.3353 15.9795 21.2353 16.0795 21.1705 16.2019ZM7.70312 22.6911C7.70312 22.2913 7.70312 22.0913 7.7834 21.9397C7.84818 21.8174 7.94824 21.7173 8.07059 21.6525C8.2222 21.5723 8.42211 21.5723 8.82194 21.5723H11.7906C12.1904 21.5723 12.3903 21.5723 12.5419 21.6525C12.6643 21.7173 12.7643 21.8174 12.8291 21.9397C12.9094 22.0913 12.9094 22.2913 12.9094 22.6911V24.2785C12.9094 24.6783 12.9094 24.8782 12.8291 25.0298C12.7643 25.1522 12.6643 25.2522 12.5419 25.317C12.3903 25.3973 12.1904 25.3973 11.7906 25.3973H8.82194C8.42211 25.3973 8.2222 25.3973 8.07059 25.317C7.94824 25.2522 7.84818 25.1522 7.7834 25.0298C7.70312 24.8782 7.70312 24.6783 7.70312 24.2785V22.6911ZM14.4769 21.9397C14.3967 22.0913 14.3967 22.2913 14.3967 22.6911V24.2785C14.3967 24.6783 14.3967 24.8782 14.4769 25.0298C14.5417 25.1522 14.6418 25.2522 14.7641 25.317C14.9157 25.3973 15.1157 25.3973 15.5155 25.3973H18.4841C18.8839 25.3973 19.0838 25.3973 19.2355 25.317C19.3578 25.2522 19.4579 25.1522 19.5226 25.0298C19.6029 24.8782 19.6029 24.6783 19.6029 24.2785V22.6911C19.6029 22.2913 19.6029 22.0913 19.5226 21.9397C19.4579 21.8174 19.3578 21.7173 19.2355 21.6525C19.0838 21.5723 18.8839 21.5723 18.4841 21.5723H15.5155C15.1157 21.5723 14.9157 21.5723 14.7641 21.6525C14.6418 21.7173 14.5417 21.8174 14.4769 21.9397Z" fill="#0A0B0C"></path></g><defs><clipPath id="clip0_1172_59234"><rect width="34" height="34" fill="white" transform="translate(0 0.74707)"></rect></clipPath></defs></svg> 