<svg width="25" height="25" viewBox="0 0 25 25" fill="none" xmlns="http://www.w3.org/2000/svg">
<path fill-rule="evenodd" clip-rule="evenodd" d="M12.5073 2.25142C15.8491 2.25142 16.2449 2.26607 17.5591 2.32467C18.7805 2.37839 19.4401 2.58351 19.8798 2.75444C20.4612 2.9791 20.8814 3.25259 21.3162 3.68724C21.5192 3.89017 22.1325 3.91717 22.7561 3.94463C23.4832 3.97665 24.2243 4.00928 24.3453 4.32213C24.4166 4.50527 24.1299 4.86647 23.775 5.31351C23.2783 5.93937 22.648 6.73349 22.6793 7.44286C22.7379 8.76148 22.7526 9.15706 22.7526 12.4927C22.7526 15.8332 22.7379 16.2288 22.6793 17.5425C22.6256 18.7634 22.4204 19.4227 22.2494 19.8623C22.0246 20.4435 21.751 20.8635 21.3162 21.2981C20.8765 21.7376 20.4612 22.0063 19.8798 22.2309C19.4401 22.4018 18.7757 22.607 17.5591 22.6607C16.24 22.7193 15.8442 22.7339 12.5073 22.7339C9.16553 22.7339 8.76979 22.7193 7.45554 22.6607C6.23412 22.607 5.57456 22.4018 5.13484 22.2309C4.55345 22.0063 4.13328 21.7328 3.69846 21.2981C3.25875 20.8586 2.99003 20.4435 2.76529 19.8623C2.59429 19.4227 2.3891 18.7586 2.33535 17.5425C2.27672 16.2239 2.26207 15.8283 2.26207 12.4927C2.26207 9.15218 2.27672 8.75659 2.33535 7.44286C2.3891 6.22192 2.59429 5.56261 2.76529 5.12307C2.99003 4.5419 3.26363 4.1219 3.69846 3.68724C4.13817 3.2477 4.55345 2.9791 5.13484 2.75444C5.57456 2.58351 6.23901 2.37839 7.45554 2.32467C8.76979 2.26607 9.16553 2.25142 12.5073 2.25142ZM24.9267 7.35495C24.8681 6.02657 24.6531 5.1133 24.3453 4.32213C24.0375 3.49189 23.6125 2.79351 22.9138 2.10002C22.2201 1.40652 21.5214 0.976753 20.7006 0.659308C19.9042 0.351631 18.9955 0.136745 17.6666 0.0781403C16.3279 0.0146513 15.9029 0 12.5073 0C9.11178 0 8.68673 0.0146513 7.35294 0.0732565C6.02404 0.131862 5.11042 0.346747 4.31894 0.654425C3.49326 0.976753 2.79461 1.40164 2.10084 2.10002C1.40219 2.79351 0.977135 3.49189 0.65468 4.31237C0.346883 5.10842 0.131913 6.0168 0.0732851 7.34518C0.014657 8.68334 0 9.10822 0 12.5024C0 15.8967 0.014657 16.3215 0.0732851 17.6548C0.131913 18.9832 0.346883 19.8965 0.65468 20.6876C0.977135 21.513 1.40219 22.2114 2.10084 22.9049C2.79461 23.5984 3.49326 24.0281 4.31405 24.3456C5.11042 24.6533 6.01915 24.8681 7.34806 24.9267C8.68184 24.9853 9.1069 25 12.5024 25C15.898 25 16.323 24.9853 17.6568 24.9267C18.9857 24.8681 19.8994 24.6533 20.6908 24.3456C21.5116 24.0281 22.2103 23.5984 22.904 22.9049C23.5978 22.2114 24.0278 21.513 24.3453 20.6925C24.6531 19.8965 24.8681 18.9881 24.9267 17.6597C24.9853 16.3264 25 15.9015 25 12.5073C25 9.11311 24.9853 8.68822 24.9267 7.35495ZM12.5069 6.08008C8.95993 6.08008 6.08227 8.95662 6.08227 12.5022C6.08227 16.0478 8.95993 18.9244 12.5069 18.9244C16.0539 18.9244 18.9316 16.0478 18.9316 12.5022C18.9316 8.95662 16.0539 6.08008 12.5069 6.08008ZM12.5069 16.6681C10.2058 16.6681 8.33945 14.8025 8.33945 12.5022C8.33945 10.202 10.2058 8.33638 12.5069 8.33638C14.8081 8.33638 16.6744 10.202 16.6744 12.5022C16.6744 14.8025 14.8081 16.6681 12.5069 16.6681ZM19.1862 7.32566C20.0119 7.32566 20.6861 6.65659 20.6861 5.82634C20.6861 5.00099 20.0119 4.32703 19.1862 4.32703C18.3605 4.32703 17.6863 4.9961 17.6863 5.82634C17.6863 6.6517 18.3556 7.32566 19.1862 7.32566Z" fill="black"/>
</svg>
