<svg width="25" height="25" viewBox="0 0 25 25" fill="none" xmlns="http://www.w3.org/2000/svg">
<path d="M12.5 0C5.5957 0 0 5.5957 0 12.5C0 17.7979 3.2959 22.3193 7.94434 24.1406C7.83691 23.1494 7.73438 21.6357 7.98828 20.5566C8.21777 19.5801 9.45312 14.3457 9.45312 14.3457C9.45312 14.3457 9.07715 13.5986 9.07715 12.4902C9.07715 10.752 10.083 9.45312 11.3379 9.45312C12.4023 9.45312 12.9199 10.2539 12.9199 11.2158C12.9199 12.29 12.2363 13.8916 11.8848 15.376C11.5918 16.6211 12.5098 17.6367 13.7354 17.6367C15.957 17.6367 17.666 15.293 17.666 11.9141C17.666 8.9209 15.5176 6.82617 12.4463 6.82617C8.8916 6.82617 6.80176 9.49219 6.80176 12.251C6.80176 13.3252 7.2168 14.4775 7.73437 15.1025C7.83691 15.2246 7.85156 15.3369 7.82227 15.459C7.72949 15.8545 7.51465 16.7041 7.47559 16.875C7.42188 17.1045 7.29492 17.1533 7.05566 17.041C5.49316 16.3135 4.5166 14.0332 4.5166 12.1973C4.5166 8.25195 7.38281 4.63379 12.7734 4.63379C17.1094 4.63379 20.4785 7.72461 20.4785 11.8555C20.4785 16.1621 17.7637 19.6289 13.9941 19.6289C12.7295 19.6289 11.5381 18.9697 11.1279 18.1934C11.1279 18.1934 10.5029 20.5811 10.3516 21.167C10.0684 22.251 9.30664 23.6133 8.79883 24.4434C9.9707 24.8047 11.2109 25 12.5 25C19.4043 25 25 19.4043 25 12.5C25 5.5957 19.4043 0 12.5 0Z" fill="black"/>
</svg>
