<svg width="1447" height="435" viewBox="0 0 1447 435" fill="none" xmlns="http://www.w3.org/2000/svg">
<path d="M257.95 306.006C257.95 377.248 200.206 435 128.975 435C57.744 435 0 377.248 0 306.006C0 234.765 57.744 177.013 128.975 177.013C200.206 177.013 257.95 234.765 257.95 306.006ZM47.5409 306.006C47.5409 350.988 84.0002 387.452 128.975 387.452C173.95 387.452 210.409 350.988 210.409 306.006C210.409 261.025 173.95 224.561 128.975 224.561C84.0002 224.561 47.5409 261.025 47.5409 306.006Z" fill="black"/>
<path d="M257.95 306.006C257.95 377.248 200.206 435 128.975 435C57.744 435 0 377.248 0 306.006C0 234.765 57.744 177.013 128.975 177.013C200.206 177.013 257.95 234.765 257.95 306.006ZM47.5409 306.006C47.5409 350.988 84.0002 387.452 128.975 387.452C173.95 387.452 210.409 350.988 210.409 306.006C210.409 261.025 173.95 224.561 128.975 224.561C84.0002 224.561 47.5409 261.025 47.5409 306.006Z" fill="black"/>
<path d="M257.95 306.006C257.95 377.248 200.206 435 128.975 435C57.744 435 0 377.248 0 306.006C0 234.765 57.744 177.013 128.975 177.013C200.206 177.013 257.95 234.765 257.95 306.006ZM47.5409 306.006C47.5409 350.988 84.0002 387.452 128.975 387.452C173.95 387.452 210.409 350.988 210.409 306.006C210.409 261.025 173.95 224.561 128.975 224.561C84.0002 224.561 47.5409 261.025 47.5409 306.006Z" fill="black"/>
<path d="M257.95 306.006C257.95 377.248 200.206 435 128.975 435C57.744 435 0 377.248 0 306.006C0 234.765 57.744 177.013 128.975 177.013C200.206 177.013 257.95 234.765 257.95 306.006ZM47.5409 306.006C47.5409 350.988 84.0002 387.452 128.975 387.452C173.95 387.452 210.409 350.988 210.409 306.006C210.409 261.025 173.95 224.561 128.975 224.561C84.0002 224.561 47.5409 261.025 47.5409 306.006Z" fill="white"/>
<path d="M469.394 306.006C469.394 377.248 411.65 435 340.419 435C269.188 435 211.444 377.248 211.444 306.006C211.444 234.765 269.188 177.013 340.419 177.013C411.65 177.013 469.394 234.765 469.394 306.006ZM262.696 306.006C262.696 348.938 297.494 383.741 340.419 383.741C383.344 383.741 418.142 348.938 418.142 306.006C418.142 263.075 383.344 228.272 340.419 228.272C297.494 228.272 262.696 263.075 262.696 306.006Z" fill="black"/>
<path d="M469.394 306.006C469.394 377.248 411.65 435 340.419 435C269.188 435 211.444 377.248 211.444 306.006C211.444 234.765 269.188 177.013 340.419 177.013C411.65 177.013 469.394 234.765 469.394 306.006ZM262.696 306.006C262.696 348.938 297.494 383.741 340.419 383.741C383.344 383.741 418.142 348.938 418.142 306.006C418.142 263.075 383.344 228.272 340.419 228.272C297.494 228.272 262.696 263.075 262.696 306.006Z" fill="black"/>
<path d="M469.394 306.006C469.394 377.248 411.65 435 340.419 435C269.188 435 211.444 377.248 211.444 306.006C211.444 234.765 269.188 177.013 340.419 177.013C411.65 177.013 469.394 234.765 469.394 306.006ZM262.696 306.006C262.696 348.938 297.494 383.741 340.419 383.741C383.344 383.741 418.142 348.938 418.142 306.006C418.142 263.075 383.344 228.272 340.419 228.272C297.494 228.272 262.696 263.075 262.696 306.006Z" fill="#FF1D1D"/>
<path d="M469.394 306.006C469.394 377.248 411.65 435 340.419 435C269.188 435 211.444 377.248 211.444 306.006C211.444 234.765 269.188 177.013 340.419 177.013C411.65 177.013 469.394 234.765 469.394 306.006ZM262.696 306.006C262.696 348.938 297.494 383.741 340.419 383.741C383.344 383.741 418.142 348.938 418.142 306.006C418.142 263.075 383.344 228.272 340.419 228.272C297.494 228.272 262.696 263.075 262.696 306.006Z" fill="#F21A05"/>
<path d="M417.615 51.5974C417.615 23.1009 440.713 0 469.205 0V296.214H417.615V51.5974Z" fill="#F21A05"/>
<path d="M177.487 233.8L203.508 264.815L76.4532 371.441L50.4324 340.427L177.487 233.8Z" fill="black"/>
<path d="M177.487 233.8L203.508 264.815L76.4532 371.441L50.4324 340.427L177.487 233.8Z" fill="white"/>
<path d="M582.012 380.913C582.012 384.588 584.951 387.895 588.993 387.895H738.536C742.577 387.895 745.517 384.588 745.517 380.913V350.78C745.517 347.105 742.577 343.798 738.536 343.798H629.777V279.489H720.532C724.206 279.489 727.513 276.549 727.513 272.507V242.006C727.513 238.331 724.206 235.024 720.532 235.024H629.777V174.757H738.536C742.577 174.757 745.517 171.45 745.517 167.775V137.642C745.517 133.967 742.577 130.659 738.536 130.659H588.993C584.951 130.659 582.012 133.967 582.012 137.642V380.913Z" fill="white"/>
<path d="M793.713 380.913C793.713 384.588 796.652 387.895 800.694 387.895H935.172C939.214 387.895 942.153 384.588 942.153 380.913V350.78C942.153 347.105 939.214 343.798 935.172 343.798H841.478V137.642C841.478 133.967 838.171 130.659 834.497 130.659H800.694C796.652 130.659 793.713 133.967 793.713 137.642V380.913Z" fill="white"/>
<path d="M979.22 380.913C979.22 384.588 982.527 387.895 986.201 387.895H1020.37C1024.05 387.895 1027.35 384.588 1027.35 380.913V137.642C1027.35 133.967 1024.05 130.659 1020.37 130.659H986.201C982.527 130.659 979.22 133.967 979.22 137.642V380.913Z" fill="white"/>
<path d="M1131.25 380.913C1131.25 384.588 1134.56 387.895 1138.24 387.895H1172.41C1176.08 387.895 1179.39 384.588 1179.39 380.913V174.757H1235.6C1239.65 174.757 1242.58 171.45 1242.58 167.775V137.642C1242.58 133.967 1239.65 130.659 1235.6 130.659H1075.04C1071 130.659 1068.06 133.967 1068.06 137.642V167.775C1068.06 171.45 1071 174.757 1075.04 174.757H1131.25V380.913Z" fill="white"/>
<path d="M1283.5 380.913C1283.5 384.588 1286.43 387.895 1290.48 387.895H1440.02C1444.06 387.895 1447 384.588 1447 380.913V350.78C1447 347.105 1444.06 343.798 1440.02 343.798H1331.26V279.489H1422.01C1425.69 279.489 1429 276.549 1429 272.507V242.006C1429 238.331 1425.69 235.024 1422.01 235.024H1331.26V174.757H1440.02C1444.06 174.757 1447 171.45 1447 167.775V137.642C1447 133.967 1444.06 130.659 1440.02 130.659H1290.48C1286.43 130.659 1283.5 133.967 1283.5 137.642V380.913Z" fill="white"/>
</svg>
