<svg width="124" height="126" viewBox="0 0 124 126" fill="none" xmlns="http://www.w3.org/2000/svg">
<path d="M10.2501 51.4098L11.3824 46.8086L12.9671 47.1986L11.4147 53.506L0.75 50.8813L1.17004 49.1746L10.2505 51.4093L10.2501 51.4098Z" fill="#0A0B0C"/>
<path d="M7.1666 36.6833L5.47477 40.7547L8.14072 41.8628L9.61558 38.3129L11.1223 38.9387L9.64741 42.4886L12.603 43.7169L14.2948 39.6452L15.8015 40.2714L13.4354 45.9651L3.29297 41.7512L5.65902 36.0566L7.16571 36.6829L7.1666 36.6833Z" fill="#0A0B0C"/>
<path d="M21.6563 30.7705L20.6194 32.3798L17.7948 31.8101L15.2871 35.7003L16.9726 38.0377L15.9357 39.6465L9.05859 30.0434L10.0784 28.4609L21.6563 30.7705ZM11.7972 30.9494L14.2609 34.3666L16.1567 31.4259L12.0186 30.6064L11.3937 30.4468L11.7972 30.9494Z" fill="#0A0B0C"/>
<path d="M27.5026 24.7061L26.1242 26.1666L21.436 24.8702L20.5314 25.8286L23.6577 28.7797L22.4518 30.0577L14.4647 22.5194L16.6402 20.2143C17.4158 19.3926 18.2612 18.9506 19.1771 18.8869C20.0929 18.8232 20.9196 19.1397 21.6575 19.8364C22.1595 20.3102 22.4787 20.8558 22.6145 21.4735C22.7508 22.0908 22.6948 22.7144 22.4464 23.3429L27.5026 24.7061ZM16.8572 22.3611L19.3905 24.7518L20.3597 23.7252C20.7613 23.2994 20.9747 22.8565 20.9985 22.397C21.0222 21.9379 20.8326 21.5174 20.4292 21.1368C20.0257 20.7562 19.5918 20.5872 19.1269 20.6303C18.662 20.6742 18.2285 20.9078 17.8264 21.3341L16.8568 22.3607L16.8572 22.3611Z" fill="#0A0B0C"/>
<path d="M35.5209 18.7153L34.112 19.7391L25.7389 16.7876L24.9813 16.4653L29.6964 22.9502L28.2748 23.9839L21.8164 15.1007L23.2124 14.0858L31.5729 17.0467L32.3744 17.3753L27.641 10.8653L29.0625 9.83203L35.5209 18.7153Z" fill="#0A0B0C"/>
<path d="M49.1755 12.898L47.3814 13.5646L45.4619 11.4151L41.1229 13.0271L41.0718 15.9078L39.2773 16.5744L39.5279 4.76522L41.2928 4.10938L49.1759 12.8976L49.1755 12.898ZM41.1758 7.13216L41.1001 11.3442L44.3797 10.1263L41.5582 6.99005L41.1539 6.48753L41.1758 7.13216Z" fill="#0A0B0C"/>
<path d="M51.5893 1.43536C52.6517 1.25649 53.5407 1.3856 54.2557 1.82178C54.9707 2.25841 55.4055 2.93532 55.5602 3.85341C55.7198 4.80243 55.4862 5.58961 54.86 6.21452C55.4311 6.33108 55.9054 6.57943 56.2824 6.96182C56.6594 7.3442 56.8988 7.83418 56.9992 8.43219C57.1588 9.38121 56.9593 10.1975 56.4007 10.8798C55.8417 11.5621 55.011 11.9965 53.9074 12.1821L50.2094 12.8048L48.3867 1.97419L51.5893 1.43536ZM50.3906 3.29171L50.8877 6.2468L52.4038 5.99173C52.909 5.907 53.2919 5.70707 53.5523 5.39282C53.8123 5.07857 53.906 4.70515 53.8329 4.27166C53.7513 3.78661 53.5362 3.43874 53.1879 3.2267C52.8391 3.01466 52.3966 2.95415 51.8605 3.04425L50.3906 3.29171ZM51.1482 7.79383L51.6713 10.904L53.6361 10.5736C54.2032 10.4782 54.626 10.2639 54.9043 9.93036C55.1827 9.59728 55.2795 9.18307 55.1966 8.68816C55.115 8.20312 54.8891 7.8548 54.5193 7.64097C54.149 7.42714 53.6801 7.36841 53.113 7.46345L51.1482 7.79383Z" fill="#0A0B0C"/>
<path d="M64.2203 0.367512C65.8615 0.419065 67.1933 0.9978 68.2154 2.10282C69.2371 3.20829 69.7221 4.58139 69.6701 6.22256C69.6186 7.86374 69.047 9.20859 67.9572 10.2576C66.8665 11.3061 65.5011 11.8046 63.8594 11.7522C62.2075 11.7002 60.868 11.116 59.8415 10.0003C58.8144 8.88493 58.3271 7.5069 58.3787 5.86483C58.4307 4.22366 59.0045 2.88374 60.0997 1.84596C61.1944 0.807727 62.5679 0.314614 64.2199 0.367063L64.2203 0.367512ZM66.8849 3.23071C66.2031 2.44531 65.298 2.03424 64.1688 1.99882C63.0395 1.96296 62.1071 2.31531 61.3723 3.05543C60.6372 3.79644 60.2512 4.75219 60.2144 5.92266C60.1768 7.10479 60.5013 8.09057 61.1881 8.88134C61.8744 9.67301 62.7827 10.0863 63.9114 10.1217C65.0411 10.1576 65.9704 9.80257 66.7007 9.05662C67.4305 8.31023 67.8142 7.34686 67.8514 6.16518C67.8886 4.99471 67.5663 4.0161 66.8849 3.23071Z" fill="#0A0B0C"/>
<path d="M80.1286 9.901C79.7713 11.3212 79.1253 12.3235 78.1911 12.9085C77.2569 13.4931 76.1151 13.6155 74.7658 13.2761C73.4164 12.9368 72.4687 12.2886 71.9218 11.3315C71.3749 10.3744 71.2803 9.18554 71.6376 7.76537L73.2488 1.35938L74.9531 1.78794L73.342 8.19393C72.8623 10.1014 73.4693 11.2674 75.1634 11.6941C76.8575 12.1196 77.9441 11.3799 78.4238 9.47199L80.0349 3.06645L81.7393 3.49456L80.1281 9.901H80.1286Z" fill="#0A0B0C"/>
<path d="M92.1296 9.82153L88.732 8.23505L84.7759 16.7076L83.1836 15.9644L87.1397 7.49179L83.7561 5.91204L84.4464 4.43359L92.8199 8.34309L92.1296 9.82153Z" fill="#0A0B0C"/>
<path d="M102.754 15.2004C103.754 16.0436 104.372 16.9824 104.609 18.0156C104.845 19.0489 104.718 20.0921 104.229 21.1438L102.754 19.8998C103.228 18.5899 102.874 17.436 101.69 16.4386C100.882 15.7572 99.9733 15.4936 98.962 15.646C97.9502 15.7993 97.0671 16.3238 96.3122 17.2195C95.5573 18.1152 95.1915 19.0758 95.2161 20.102C95.2403 21.1281 95.6684 21.9915 96.5 22.6926C97.2195 23.2996 97.9421 23.6076 98.6666 23.6165C99.3906 23.6255 100.053 23.3072 100.651 22.6621L98.3716 20.7408L99.4331 19.4811L103.14 22.6061L102.594 23.2539C101.562 24.4772 100.408 25.1452 99.1292 25.2581C97.8507 25.3707 96.6237 24.9313 95.4483 23.9406C94.2164 22.9024 93.5539 21.6396 93.4606 20.1517C93.3669 18.6639 93.8497 17.2921 94.9081 16.0365C95.9661 14.7808 97.2343 14.0712 98.7127 13.9085C100.191 13.7457 101.538 14.1765 102.754 15.2009L102.754 15.2004Z" fill="#0A0B0C"/>
<path d="M102.642 28.511L105.649 32.1726L104.388 33.2086L100.266 28.1887L108.754 21.2188L109.869 22.5766L102.642 28.511H102.642Z" fill="#0A0B0C"/>
<path d="M106.098 36.0043L105.148 34.5263L114.388 28.5879L115.338 30.0663L106.098 36.0043Z" fill="#0A0B0C"/>
<path d="M119.022 36.8955C119.724 38.4488 119.824 39.8986 119.324 41.2434C118.824 42.5883 117.825 43.5987 116.328 44.2743C114.822 44.9543 113.402 45.0359 112.067 44.52C110.732 44.0035 109.714 42.968 109.012 41.4142L107.359 37.7535L117.37 33.2344L119.022 36.8955ZM116.606 35.5076L109.57 38.6837L110.5 40.7432C110.99 41.8298 111.684 42.5412 112.582 42.8761C113.479 43.2114 114.48 43.1294 115.587 42.63C116.693 42.131 117.418 41.4362 117.762 40.5464C118.106 39.657 118.031 38.6636 117.536 37.5671L116.607 35.5076H116.606Z" fill="#0A0B0C"/>
<path d="M122.156 51.7132L121.102 47.4321L118.298 48.122L119.217 51.8545L117.632 52.2445L116.714 48.512L113.605 49.2768L114.659 53.5579L113.075 53.9479L111.602 47.9606L122.266 45.3359L123.74 51.3237L122.156 51.7132Z" fill="#0A0B0C"/>
<path d="M2.7717 76.7068L3.90855 81.3071L2.32431 81.6984L0.765625 75.3928L11.4281 72.7578L11.8495 74.464L2.7717 76.7068Z" fill="#0A0B0C"/>
<path d="M14.3244 86.6242L12.6276 82.5551L9.963 83.6659L11.4419 87.2141L9.93566 87.8417L8.45677 84.2935L5.50257 85.5254L7.19888 89.5945L5.69309 90.2226L3.32031 84.5311L13.4578 80.3047L15.8302 85.9961L14.3244 86.6242Z" fill="#0A0B0C"/>
<path d="M12.4596 101.44L11.4213 99.8322L13.1046 97.4935L10.5933 93.605L7.76915 94.1779L6.73047 92.5699L18.3146 90.2617L19.3362 91.8433L12.46 101.44L12.4596 101.44ZM16.3601 92.3835L12.2309 93.22L14.129 96.1594L16.5811 92.7264L16.9845 92.223L16.3601 92.3835Z" fill="#0A0B0C"/>
<path d="M19.5597 109.086L18.1798 107.627L19.7403 103.02L18.8348 102.062L15.7111 105.017L14.5039 103.739L22.4843 96.1934L24.6616 98.4962C25.4376 99.317 25.8312 100.187 25.8428 101.104C25.854 102.022 25.4909 102.829 24.7539 103.526C24.2523 104.001 23.6893 104.288 23.0648 104.389C22.4399 104.49 21.8213 104.399 21.2076 104.115L19.5597 109.086ZM22.5058 98.5912L19.9748 100.985L20.9449 102.011C21.3474 102.436 21.7773 102.674 22.2346 102.724C22.6918 102.773 23.1217 102.608 23.5247 102.227C23.9273 101.846 24.1205 101.423 24.1039 100.956C24.0869 100.489 23.878 100.043 23.4754 99.6178L22.5049 98.5917L22.5058 98.5912Z" fill="#0A0B0C"/>
<path d="M29.1235 116.42L27.7136 115.398L27.9292 106.522L28.0009 105.702L23.2935 112.192L21.8711 111.16L28.3197 102.27L29.717 103.283L29.4884 112.149L29.4238 113.014L34.1496 106.498L35.572 107.53L29.1235 116.421V116.42Z" fill="#0A0B0C"/>
<path d="M45.4222 123.632L43.6272 122.967L43.5725 120.086L39.2318 118.48L37.3149 120.631L35.5195 119.968L43.4076 111.176L45.1734 111.829L45.4226 123.632L45.4222 123.632ZM43.1148 114.045L40.3117 117.19L43.5931 118.404L43.4977 114.186L43.5187 113.542L43.1148 114.045Z" fill="#0A0B0C"/>
<path d="M53.4607 113.958C54.5232 114.135 55.3211 114.547 55.855 115.193C56.3885 115.839 56.5786 116.622 56.4248 117.539C56.2661 118.488 55.7887 119.156 54.9921 119.543C55.4942 119.839 55.8609 120.229 56.0931 120.713C56.3248 121.197 56.3907 121.739 56.2908 122.337C56.1321 123.286 55.677 123.992 54.9262 124.456C54.1748 124.918 53.2478 125.058 52.1437 124.873L48.4453 124.254L50.2573 113.422L53.4607 113.958ZM50.9678 119.824L50.4474 122.934L52.4126 123.263C52.9802 123.358 53.4495 123.293 53.8212 123.069C54.1928 122.845 54.4201 122.485 54.503 121.99C54.5841 121.505 54.4846 121.102 54.2044 120.779C53.9243 120.456 53.5002 120.247 52.9331 120.153L50.9678 119.824ZM51.7214 115.321L51.2269 118.277L52.7435 118.53C53.2487 118.614 53.6759 118.551 54.0242 118.339C54.3721 118.126 54.5828 117.804 54.6554 117.371C54.7366 116.886 54.6464 116.486 54.3864 116.172C54.126 115.858 53.7275 115.657 53.1909 115.566L51.7209 115.32L51.7214 115.321Z" fill="#0A0B0C"/>
<path d="M63.9134 114.459C65.5541 114.406 66.9201 114.897 68.0112 115.934C69.1023 116.971 69.6748 118.311 69.7281 119.952C69.7815 121.593 69.2982 122.972 68.2784 124.089C67.2576 125.205 65.9267 125.791 64.285 125.844C62.6331 125.898 61.2591 125.402 60.1631 124.354C59.0666 123.307 58.4914 121.962 58.4376 120.321C58.3838 118.68 58.8702 117.306 59.8963 116.2C60.9225 115.094 62.261 114.513 63.9139 114.459L63.9134 114.459ZM66.7555 117.145C66.0253 116.405 65.0955 116.053 63.9659 116.089C62.8371 116.127 61.9293 116.538 61.2434 117.324C60.5576 118.111 60.2339 119.09 60.272 120.261C60.3106 121.442 60.6974 122.405 61.434 123.15C62.17 123.895 63.1029 124.25 64.2313 124.213C65.3609 124.176 66.2651 123.761 66.9465 122.971C67.627 122.179 67.948 121.193 67.9094 120.011C67.8709 118.841 67.4867 117.885 66.7555 117.144V117.145Z" fill="#0A0B0C"/>
<path d="M80.7272 118.457C81.0859 119.877 80.9922 121.066 80.4462 122.023C79.9006 122.981 78.9534 123.63 77.6045 123.971C76.2556 124.312 75.1134 124.19 74.1787 123.606C73.2436 123.023 72.5971 122.021 72.2385 120.601L70.6211 114.196L72.325 113.766L73.942 120.171C74.4235 122.077 75.511 122.817 77.2046 122.389C78.8982 121.961 79.5048 120.794 79.0233 118.887L77.4059 112.483L79.1098 112.053L80.7272 118.457Z" fill="#0A0B0C"/>
<path d="M88.9167 109.369L85.5209 110.959L89.4869 119.428L87.895 120.173L83.929 111.704L80.5476 113.288L79.8555 111.81L88.2245 107.891L88.9167 109.369Z" fill="#0A0B0C"/>
<path d="M95.4481 102.274C96.4473 101.43 97.4757 100.979 98.535 100.919C99.5938 100.86 100.6 101.161 101.554 101.82L100.08 103.065C98.8685 102.377 97.6716 102.532 96.489 103.531C95.6816 104.213 95.2683 105.065 95.249 106.087C95.2298 107.11 95.5978 108.069 96.3541 108.963C97.1099 109.859 97.9952 110.38 99.0111 110.529C100.027 110.678 100.95 110.401 101.781 109.699C102.5 109.092 102.925 108.432 103.056 107.719C103.186 107.006 102.984 106.301 102.449 105.602L100.172 107.526L99.1088 106.267L102.813 103.138L103.359 103.785C104.392 105.008 104.856 106.259 104.752 107.538C104.648 108.817 104.009 109.953 102.834 110.945C101.603 111.984 100.247 112.425 98.7649 112.266C97.2825 112.108 96.0116 111.402 94.9518 110.147C93.8925 108.892 93.4066 107.523 93.4945 106.038C93.5823 104.554 94.2332 103.299 95.4481 102.273V102.274Z" fill="#0A0B0C"/>
<path d="M108.652 102.551L111.655 98.8861L112.917 99.9203L108.8 104.945L100.305 97.9842L101.418 96.625L108.652 102.552L108.652 102.551Z" fill="#0A0B0C"/>
<path d="M115.374 96.0878L114.426 97.5672L105.18 91.6395L106.128 90.1602L115.374 96.0878Z" fill="#0A0B0C"/>
<path d="M109.029 84.7566C109.729 83.2019 110.749 82.1668 112.087 81.6513C113.427 81.1362 114.845 81.2151 116.342 81.8893C117.849 82.568 118.851 83.5785 119.348 84.9206C119.844 86.2628 119.743 87.7117 119.043 89.2659L117.394 92.9284L107.379 88.4186L109.028 84.7561L109.029 84.7566ZM109.589 87.4866L116.627 90.656L117.555 88.5957C118.045 87.5086 118.118 86.5179 117.775 85.6231C117.432 84.7292 116.708 84.0326 115.601 83.5345C114.495 83.0365 113.494 82.9531 112.599 83.2839C111.704 83.6152 111.01 84.3293 110.516 85.4259L109.589 87.4862V87.4866Z" fill="#0A0B0C"/>
<path d="M114.668 72.5957L113.62 76.8782L116.424 77.5645L117.338 73.8307L118.923 74.2189L118.008 77.9527L121.118 78.7139L122.166 74.431L123.751 74.8192L122.285 80.8083L111.617 78.1961L113.084 72.207L114.669 72.5952L114.668 72.5957Z" fill="#0A0B0C"/>
</svg>
