<?xml version="1.0" encoding="UTF-8"?> <svg xmlns="http://www.w3.org/2000/svg" width="34" height="35" viewBox="0 0 34 35" fill="none"><g clip-path="url(#clip0_1172_59187)"><path d="M17.7207 19.2877C17.7843 18.153 18.34 17.1534 19.1782 16.4447C20.0003 15.7487 21.1068 15.3232 22.3141 15.3232C23.5202 15.3232 24.6267 15.7487 25.4493 16.4447C26.287 17.1534 26.8427 18.153 26.9069 19.2865C26.9705 20.4524 26.5018 21.5355 25.6798 22.3383C24.8415 23.155 23.6492 23.6674 22.3141 23.6674C20.979 23.6674 19.7843 23.155 18.9466 22.3383C18.1239 21.5355 17.6565 20.4524 17.7207 19.2877Z" fill="#0A0B0C"></path><path d="M10.4064 21.5859C10.4142 22.0299 10.5558 22.8928 10.7683 23.5666C11.2147 24.9929 11.972 26.3124 13.0256 27.4753C14.1069 28.6706 15.4385 29.6307 16.9764 30.3123C18.5929 31.0282 20.3445 31.393 22.1638 31.39C23.9802 31.3876 25.7317 31.0155 27.3482 30.2943C28.8862 29.606 30.2165 28.6418 31.296 27.4459C32.349 26.2782 33.1051 24.9563 33.5528 23.53C33.7778 22.8094 33.92 22.0779 33.977 21.3441C34.0328 20.621 34.0094 19.8968 33.9068 19.1731C33.7064 17.763 33.2185 16.4399 32.4673 15.2338C31.7802 14.1255 30.8945 13.1553 29.8415 12.3386L29.8439 12.3368L19.2164 4.17685C19.2068 4.16965 19.199 4.16186 19.1888 4.15526C18.4915 3.62002 17.319 3.62183 16.5521 4.15826C15.7769 4.7007 15.6881 5.59775 16.3781 6.16359L16.3751 6.1666L20.8077 9.77106L7.29757 9.78545H7.27957C6.16288 9.78665 5.08939 10.5193 4.87697 11.4452C4.65856 12.3884 5.41701 13.1709 6.57811 13.1751L6.57631 13.1793L13.4241 13.1661L1.20466 22.5454C1.18906 22.5568 1.17226 22.5687 1.15786 22.5801C0.00516002 23.4628 -0.367462 24.9305 0.358598 25.8594C1.09546 26.8038 2.66219 26.8056 3.82689 25.8648L10.4958 20.4068C10.4958 20.4068 10.3986 21.1436 10.4064 21.5859ZM27.5433 24.0532C26.1691 25.4531 24.2454 26.247 22.1638 26.2512C20.0792 26.2548 18.1555 25.4682 16.7814 24.0707C16.1099 23.3896 15.6167 22.606 15.3124 21.7713C15.0142 20.951 14.8984 20.0804 14.9752 19.2019C15.0478 18.3432 15.3034 17.5242 15.7115 16.7831C16.1123 16.0547 16.6644 15.3964 17.346 14.8396C18.6817 13.7511 20.3823 13.1619 22.1608 13.1595C23.9412 13.1571 25.6405 13.7409 26.9774 14.8258C27.6579 15.3802 28.2093 16.0361 28.6101 16.7633C29.02 17.5038 29.2738 18.3198 29.3494 19.1809C29.425 20.0582 29.3092 20.9276 29.011 21.7485C28.7062 22.5856 28.2147 23.3692 27.5433 24.0532Z" fill="#0A0B0C"></path></g><defs><clipPath id="clip0_1172_59187"><rect width="34" height="34" fill="white" transform="translate(0 0.74707)"></rect></clipPath></defs></svg> 