<?xml version="1.0" encoding="UTF-8"?> <svg xmlns="http://www.w3.org/2000/svg" width="34" height="35" viewBox="0 0 34 35" fill="none"><g clip-path="url(#clip0_1172_59130)"><g clip-path="url(#clip1_1172_59130)"><path d="M27.5786 7.40066C27.5786 10.3275 25.2059 12.7003 22.279 12.7003H16.8418V2.10107H22.279C25.2059 2.10107 27.5786 4.47378 27.5786 7.40066Z" stroke="#0A0B0C" stroke-width="2.07593"></path><path d="M6.10547 7.40066C6.10547 10.3275 8.47817 12.7003 11.4051 12.7003H16.8423V2.10107H11.4051C8.47817 2.10107 6.10547 4.47378 6.10547 7.40066Z" stroke="#0A0B0C" stroke-width="2.07593"></path><path d="M6.10547 17.9998C6.10547 20.9267 8.47817 23.2994 11.4051 23.2994H16.8423V12.7002H11.4051C8.47817 12.7002 6.10547 15.0729 6.10547 17.9998Z" stroke="#0A0B0C" stroke-width="2.07593"></path><path d="M6.10547 28.5989C6.10547 31.5258 8.51237 33.8985 11.4393 33.8985C14.4042 33.8985 16.8423 31.495 16.8423 28.5301V23.2993H11.4051C8.47817 23.2993 6.10547 25.672 6.10547 28.5989Z" stroke="#0A0B0C" stroke-width="2.07593"></path><path d="M16.8418 17.9998C16.8418 20.9267 19.2145 23.2994 22.1414 23.2994H22.279C25.2059 23.2994 27.5786 20.9267 27.5786 17.9998C27.5786 15.0729 25.2059 12.7002 22.279 12.7002H22.1414C19.2145 12.7002 16.8418 15.0729 16.8418 17.9998Z" stroke="#0A0B0C" stroke-width="2.07593"></path></g></g><defs><clipPath id="clip0_1172_59130"><rect width="34" height="34" fill="white" transform="translate(0 0.5)"></rect></clipPath><clipPath id="clip1_1172_59130"><rect width="23.6761" height="34" fill="white" transform="translate(5.00195 1)"></rect></clipPath></defs></svg> 