<svg width="25" height="20" viewBox="0 0 25 20" fill="none" xmlns="http://www.w3.org/2000/svg">
<path d="M7.86475 20C17.2964 20 22.4565 12.3046 22.4565 5.63322C22.4565 5.41688 22.4517 5.19574 22.4419 4.9794C23.4457 4.26466 24.312 3.37935 25 2.36507C24.0651 2.7746 23.0725 3.04206 22.0562 3.15831C23.1263 2.52672 23.9276 1.53451 24.3115 0.365627C23.3047 0.953083 22.2037 1.36748 21.0557 1.59106C20.2821 0.78181 19.2594 0.24599 18.1455 0.0664421C17.0316 -0.113105 15.8887 0.0736207 14.8935 0.597751C13.8982 1.12188 13.106 1.95422 12.6394 2.96609C12.1728 3.97796 12.0577 5.11299 12.312 6.1957C10.2734 6.09498 8.2791 5.57358 6.45831 4.6653C4.63753 3.75702 3.03093 2.48213 1.74268 0.923299C1.08792 2.03477 0.887559 3.35001 1.18232 4.6017C1.47709 5.85339 2.24486 6.94762 3.32959 7.66199C2.51524 7.63654 1.71872 7.42066 1.00586 7.03221V7.09471C1.00513 8.26111 1.41469 9.39178 2.16491 10.2945C2.91513 11.1972 3.95971 11.8163 5.12109 12.0464C4.36672 12.2497 3.57498 12.2793 2.80713 12.133C3.13485 13.1361 3.77247 14.0135 4.63101 14.6426C5.48955 15.2718 6.52617 15.6213 7.59619 15.6425C5.77961 17.0474 3.5356 17.8095 1.22559 17.8058C0.815924 17.8052 0.406666 17.7805 0 17.7318C2.34673 19.2141 5.07659 20.0014 7.86475 20Z" fill="black"/>
</svg>
