<svg width="1530" height="259" viewBox="0 0 1530 259" fill="none" xmlns="http://www.w3.org/2000/svg">
<g clip-path="url(#clip0_209_570)">
<g clip-path="url(#clip1_209_570)">
<path fill-rule="evenodd" clip-rule="evenodd" d="M0 0.375488H57.8632V58.2387H0V0.375488Z" fill="#F9F9F9"/>
<path fill-rule="evenodd" clip-rule="evenodd" d="M114.47 0.375488H123.831C156.637 0.48193 188.068 13.5638 211.261 36.7648C234.454 59.9657 247.526 91.4009 247.622 124.207C247.515 157.005 234.439 188.43 211.247 211.622C188.054 234.814 156.63 247.891 123.831 247.997H0V114.846H57.2552V190.782H123.831C141.488 190.782 158.422 183.768 170.907 171.283C183.393 158.797 190.407 141.864 190.407 124.207C190.407 106.549 183.393 89.6157 170.907 77.1303C158.422 64.6449 141.488 57.6307 123.831 57.6307H114.47V0.375488Z" fill="#B388DD"/>
</g>
</g>
<path d="M455.813 160.733C455.813 167.015 455.386 172.698 454.531 177.782H326.791C327.86 190.388 332.282 200.258 340.059 207.394C347.836 214.53 357.407 218.098 368.773 218.098C385.181 218.098 396.846 211.069 403.769 197.011H451.391C446.349 213.803 436.67 227.626 422.356 238.48C408.084 249.29 390.522 254.696 369.67 254.696C352.878 254.696 337.794 250.978 324.42 243.543C311.088 236.065 300.684 225.49 293.206 211.816C285.728 198.143 281.99 182.376 281.99 164.515C281.99 146.44 285.686 130.566 293.078 116.893C300.427 103.219 310.725 92.7079 323.971 85.3584C337.217 77.9662 352.45 74.2701 369.67 74.2701C386.292 74.2701 401.183 77.8594 414.344 85.038C427.462 92.1738 437.653 102.322 444.917 115.483C452.181 128.601 455.813 143.684 455.813 160.733ZM327.112 148.107H410.05C409.836 136.741 405.734 127.639 397.744 120.803C389.753 113.966 379.99 110.548 368.453 110.548C357.514 110.548 348.306 113.859 340.828 120.482C333.35 127.105 328.778 136.313 327.112 148.107Z" fill="#F9F9F9"/>
<path d="M527.995 77.1548L572.156 211.176L616.317 77.1548H663.362L598.691 251.876H545.044L480.693 77.1548H527.995Z" fill="#F9F9F9"/>
<path d="M762.75 31.7114C785.909 31.7114 806.27 36.2407 823.832 45.2994C841.351 54.3153 854.896 67.1983 864.468 83.9482C874.039 100.655 878.825 120.033 878.825 142.082C878.825 164.173 874.039 183.465 864.468 199.959C854.896 216.495 841.351 229.271 823.832 238.287C806.27 247.346 785.909 251.875 762.75 251.875H685.837V31.7114H762.75ZM761.212 214.316C784.328 214.316 802.189 208.013 814.795 195.408C827.443 182.803 833.767 165.028 833.767 142.082C833.767 119.179 827.443 101.254 814.795 88.3067C802.189 75.4023 784.328 68.9502 761.212 68.9502H729.998V214.316H761.212Z" fill="#F9F9F9"/>
<path d="M930.858 56.3238C923.082 56.3238 916.608 53.8455 911.438 48.8889C906.31 43.975 903.747 37.8219 903.747 30.4297C903.747 23.0803 906.31 16.9272 911.438 11.9706C916.608 7.05669 923.082 4.59973 930.858 4.59973C938.635 4.59973 945.109 7.05669 950.279 11.9706C955.407 16.9272 957.97 23.0803 957.97 30.4297C957.97 37.8219 955.407 43.975 950.279 48.8889C945.109 53.8455 938.635 56.3238 930.858 56.3238ZM908.49 77.1545H952.651V251.875H908.49V77.1545Z" fill="#F9F9F9"/>
<path d="M1027.93 77.1548L1072.09 211.176L1116.25 77.1548H1163.3L1098.63 251.876H1044.98L980.628 77.1548H1027.93Z" fill="#F9F9F9"/>
<path d="M1359.54 160.733C1359.54 167.015 1359.12 172.698 1358.26 177.782H1230.52C1231.59 190.388 1236.01 200.258 1243.79 207.394C1251.57 214.53 1261.14 218.098 1272.5 218.098C1288.91 218.098 1300.58 211.069 1307.5 197.011H1355.12C1350.08 213.803 1340.4 227.626 1326.09 238.48C1311.81 249.29 1294.25 254.696 1273.4 254.696C1256.61 254.696 1241.52 250.978 1228.15 243.543C1214.82 236.065 1204.41 225.49 1196.94 211.816C1189.46 198.143 1185.72 182.376 1185.72 164.515C1185.72 146.44 1189.42 130.566 1196.81 116.893C1204.16 103.219 1214.45 92.7079 1227.7 85.3584C1240.95 77.9662 1256.18 74.2701 1273.4 74.2701C1290.02 74.2701 1304.91 77.8594 1318.07 85.038C1331.19 92.1738 1341.38 102.322 1348.65 115.483C1355.91 128.601 1359.54 143.684 1359.54 160.733ZM1230.84 148.107H1313.78C1313.57 136.741 1309.46 127.639 1301.47 120.803C1293.48 113.966 1283.72 110.548 1272.18 110.548C1261.24 110.548 1252.04 113.859 1244.56 120.482C1237.08 127.105 1232.51 136.313 1230.84 148.107Z" fill="#F9F9F9"/>
<path d="M1460.78 254.696C1446.46 254.696 1433.62 252.132 1422.26 247.004C1410.93 241.834 1401.96 234.826 1395.34 225.981C1388.71 217.179 1385.08 207.415 1384.44 196.69H1428.92C1429.73 203.399 1433.05 208.975 1438.86 213.419C1444.63 217.82 1451.83 220.021 1460.46 220.021C1468.87 220.021 1475.43 218.333 1480.13 214.957C1484.88 211.581 1487.25 207.266 1487.25 202.01C1487.25 196.37 1484.36 192.118 1478.6 189.255C1472.83 186.435 1463.62 183.337 1450.97 179.962C1437.94 176.8 1427.28 173.531 1418.99 170.155C1410.66 166.822 1403.5 161.673 1397.52 154.708C1391.53 147.786 1388.54 138.428 1388.54 126.635C1388.54 116.978 1391.32 108.155 1396.88 100.164C1402.47 92.1738 1410.46 85.8712 1420.85 81.2564C1431.27 76.5989 1443.54 74.2701 1457.64 74.2701C1478.45 74.2701 1495.05 79.4831 1507.44 89.9091C1519.83 100.335 1526.67 114.372 1527.95 132.019H1485.71C1485.07 125.097 1482.16 119.585 1476.99 115.483C1471.87 111.381 1464.99 109.33 1456.36 109.33C1448.36 109.33 1442.21 110.804 1437.9 113.752C1433.58 116.658 1431.42 120.738 1431.42 125.994C1431.42 131.891 1434.37 136.377 1440.27 139.454C1446.16 142.488 1455.31 145.586 1467.7 148.748C1480.31 151.91 1490.71 155.157 1498.91 158.49C1507.12 161.866 1514.21 167.079 1520.19 174.129C1526.22 181.179 1529.34 190.473 1529.55 202.01C1529.55 212.137 1526.75 221.196 1521.15 229.186C1515.6 237.176 1507.61 243.415 1497.18 247.902C1486.8 252.431 1474.66 254.696 1460.78 254.696Z" fill="#F9F9F9"/>
<defs>
<clipPath id="clip0_209_570">
<rect width="258.554" height="258.554" fill="white" transform="translate(0 0.375488)"/>
</clipPath>
<clipPath id="clip1_209_570">
<rect width="393.347" height="393.347" fill="white" transform="translate(0 0.375488)"/>
</clipPath>
</defs>
</svg>
