<svg width="512" height="512" viewBox="0 0 512 512" fill="none" xmlns="http://www.w3.org/2000/svg">
<g clip-path="url(#clip0_1113_69)">
<path d="M0 256C0 156.067 0 106.099 22.9722 69.6469C34.8501 50.7986 50.7987 34.8502 69.6468 22.9722C106.099 0 156.067 0 256 0C355.933 0 405.902 0 442.354 22.9722C461.202 34.8502 477.151 50.7986 489.029 69.6469C512 106.099 512 156.067 512 256C512 355.935 512 405.902 489.029 442.353C477.151 461.203 461.202 477.151 442.354 489.028C405.902 512 355.933 512 256 512C156.067 512 106.099 512 69.6468 489.028C50.7987 477.151 34.8501 461.203 22.9722 442.353C0 405.902 0 355.935 0 256Z" fill="#B388DD"/>
<path d="M68.8531 256.002C172.21 256.002 255.999 172.214 255.999 68.8566V256.002H68.8531Z" fill="#01021C"/>
<path d="M68.8534 256.001C172.21 256.001 255.999 339.788 255.999 443.147V256.001H68.8534Z" fill="#01021C"/>
<path d="M443.146 256.002C339.789 256.002 256 172.214 256 68.8572V256.002H443.146Z" fill="#01021C"/>
<path d="M443.146 256.001C339.789 256.001 256 339.788 256 443.147V256.001H443.146Z" fill="#01021C"/>
</g>
<defs>
<clipPath id="clip0_1113_69">
<rect width="512" height="512" fill="white"/>
</clipPath>
</defs>
</svg>
